# xmcd
#
# Track frame offsets:
#	150
#	39731
#	61884
#	80795
#	107636
#	131081
#	171917
#	178466
#	200450
#
# Disc length: 3217 seconds
#
# Revision: 1
# Processed by: cddbd v1.5.2PL0 Copyright (c) Steve Scherf et al.
# Submitted via: audiograbber 1.83.01
#
DISCID=850c8f09
DTITLE=Grateful Dead - 73-12-18 Curtis Hixon Convention Hall, Tampa FL
DYEAR=1900
DGENRE=
TTITLE0=China Cat Sunflower
TTITLE1=I Know You Rider
TTITLE2=Promised Land
TTITLE3=Bertha
TTITLE4=Greatest Story Ever Told
TTITLE5=Row Jimmy
TTITLE6=WRS Prelude
TTITLE7=WRS Part One
TTITLE8=Let It Grow
EXTD=
EXTT0=
EXTT1=
EXTT2=
EXTT3=
EXTT4=
EXTT5=
EXTT6=
EXTT7=
EXTT8=
PLAYORDER=
